<?xml version="1.0" encoding="us-ascii" standalone="no"?><svg xmlns="http://www.w3.org/2000/svg" xmlns:xlink="http://www.w3.org/1999/xlink" contentStyleType="text/css" height="1153px" preserveAspectRatio="none" style="width:1057px;height:1153px;background:#FFFFFF;" version="1.1" viewBox="0 0 1057 1153" width="1057px" zoomAndPan="magnify"><defs/><g><line style="stroke:#181818;stroke-width:0.5;stroke-dasharray:5.0,5.0;" x1="34" x2="34" y1="82.6094" y2="200.0156"/><line style="stroke:#A80036;stroke-width:1.0;stroke-dasharray:1.0,4.0;" x1="34" x2="34" y1="200.0156" y2="241.8516"/><line style="stroke:#181818;stroke-width:0.5;stroke-dasharray:5.0,5.0;" x1="34" x2="34" y1="241.8516" y2="547.0703"/><line style="stroke:#A80036;stroke-width:1.0;stroke-dasharray:1.0,4.0;" x1="34" x2="34" y1="547.0703" y2="588.9063"/><line style="stroke:#181818;stroke-width:0.5;stroke-dasharray:5.0,5.0;" x1="34" x2="34" y1="588.9063" y2="901.0703"/><line style="stroke:#A80036;stroke-width:1.0;stroke-dasharray:1.0,4.0;" x1="34" x2="34" y1="901.0703" y2="942.9063"/><line style="stroke:#181818;stroke-width:0.5;stroke-dasharray:5.0,5.0;" x1="34" x2="34" y1="942.9063" y2="989.6094"/><line style="stroke:#A80036;stroke-width:1.0;stroke-dasharray:1.0,4.0;" x1="34" x2="34" y1="989.6094" y2="1031.4453"/><line style="stroke:#181818;stroke-width:0.5;stroke-dasharray:5.0,5.0;" x1="34" x2="34" y1="1031.4453" y2="1071.7969"/><line style="stroke:#181818;stroke-width:0.5;stroke-dasharray:5.0,5.0;" x1="179" x2="179" y1="82.6094" y2="200.0156"/><line style="stroke:#A80036;stroke-width:1.0;stroke-dasharray:1.0,4.0;" x1="179" x2="179" y1="200.0156" y2="241.8516"/><line style="stroke:#181818;stroke-width:0.5;stroke-dasharray:5.0,5.0;" x1="179" x2="179" y1="241.8516" y2="547.0703"/><line style="stroke:#A80036;stroke-width:1.0;stroke-dasharray:1.0,4.0;" x1="179" x2="179" y1="547.0703" y2="588.9063"/><line style="stroke:#181818;stroke-width:0.5;stroke-dasharray:5.0,5.0;" x1="179" x2="179" y1="588.9063" y2="901.0703"/><line style="stroke:#A80036;stroke-width:1.0;stroke-dasharray:1.0,4.0;" x1="179" x2="179" y1="901.0703" y2="942.9063"/><line style="stroke:#181818;stroke-width:0.5;stroke-dasharray:5.0,5.0;" x1="179" x2="179" y1="942.9063" y2="989.6094"/><line style="stroke:#A80036;stroke-width:1.0;stroke-dasharray:1.0,4.0;" x1="179" x2="179" y1="989.6094" y2="1031.4453"/><line style="stroke:#181818;stroke-width:0.5;stroke-dasharray:5.0,5.0;" x1="179" x2="179" y1="1031.4453" y2="1071.7969"/><line style="stroke:#181818;stroke-width:0.5;stroke-dasharray:5.0,5.0;" x1="306" x2="306" y1="82.6094" y2="200.0156"/><line style="stroke:#A80036;stroke-width:1.0;stroke-dasharray:1.0,4.0;" x1="306" x2="306" y1="200.0156" y2="241.8516"/><line style="stroke:#181818;stroke-width:0.5;stroke-dasharray:5.0,5.0;" x1="306" x2="306" y1="241.8516" y2="547.0703"/><line style="stroke:#A80036;stroke-width:1.0;stroke-dasharray:1.0,4.0;" x1="306" x2="306" y1="547.0703" y2="588.9063"/><line style="stroke:#181818;stroke-width:0.5;stroke-dasharray:5.0,5.0;" x1="306" x2="306" y1="588.9063" y2="901.0703"/><line style="stroke:#A80036;stroke-width:1.0;stroke-dasharray:1.0,4.0;" x1="306" x2="306" y1="901.0703" y2="942.9063"/><line style="stroke:#181818;stroke-width:0.5;stroke-dasharray:5.0,5.0;" x1="306" x2="306" y1="942.9063" y2="989.6094"/><line style="stroke:#A80036;stroke-width:1.0;stroke-dasharray:1.0,4.0;" x1="306" x2="306" y1="989.6094" y2="1031.4453"/><line style="stroke:#181818;stroke-width:0.5;stroke-dasharray:5.0,5.0;" x1="306" x2="306" y1="1031.4453" y2="1071.7969"/><line style="stroke:#181818;stroke-width:0.5;stroke-dasharray:5.0,5.0;" x1="551" x2="551" y1="82.6094" y2="200.0156"/><line style="stroke:#A80036;stroke-width:1.0;stroke-dasharray:1.0,4.0;" x1="551" x2="551" y1="200.0156" y2="241.8516"/><line style="stroke:#181818;stroke-width:0.5;stroke-dasharray:5.0,5.0;" x1="551" x2="551" y1="241.8516" y2="547.0703"/><line style="stroke:#A80036;stroke-width:1.0;stroke-dasharray:1.0,4.0;" x1="551" x2="551" y1="547.0703" y2="588.9063"/><line style="stroke:#181818;stroke-width:0.5;stroke-dasharray:5.0,5.0;" x1="551" x2="551" y1="588.9063" y2="901.0703"/><line style="stroke:#A80036;stroke-width:1.0;stroke-dasharray:1.0,4.0;" x1="551" x2="551" y1="901.0703" y2="942.9063"/><line style="stroke:#181818;stroke-width:0.5;stroke-dasharray:5.0,5.0;" x1="551" x2="551" y1="942.9063" y2="989.6094"/><line style="stroke:#A80036;stroke-width:1.0;stroke-dasharray:1.0,4.0;" x1="551" x2="551" y1="989.6094" y2="1031.4453"/><line style="stroke:#181818;stroke-width:0.5;stroke-dasharray:5.0,5.0;" x1="551" x2="551" y1="1031.4453" y2="1071.7969"/><line style="stroke:#181818;stroke-width:0.5;stroke-dasharray:5.0,5.0;" x1="668.5" x2="668.5" y1="82.6094" y2="200.0156"/><line style="stroke:#A80036;stroke-width:1.0;stroke-dasharray:1.0,4.0;" x1="668.5" x2="668.5" y1="200.0156" y2="241.8516"/><line style="stroke:#181818;stroke-width:0.5;stroke-dasharray:5.0,5.0;" x1="668.5" x2="668.5" y1="241.8516" y2="547.0703"/><line style="stroke:#A80036;stroke-width:1.0;stroke-dasharray:1.0,4.0;" x1="668.5" x2="668.5" y1="547.0703" y2="588.9063"/><line style="stroke:#181818;stroke-width:0.5;stroke-dasharray:5.0,5.0;" x1="668.5" x2="668.5" y1="588.9063" y2="901.0703"/><line style="stroke:#A80036;stroke-width:1.0;stroke-dasharray:1.0,4.0;" x1="668.5" x2="668.5" y1="901.0703" y2="942.9063"/><line style="stroke:#181818;stroke-width:0.5;stroke-dasharray:5.0,5.0;" x1="668.5" x2="668.5" y1="942.9063" y2="989.6094"/><line style="stroke:#A80036;stroke-width:1.0;stroke-dasharray:1.0,4.0;" x1="668.5" x2="668.5" y1="989.6094" y2="1031.4453"/><line style="stroke:#181818;stroke-width:0.5;stroke-dasharray:5.0,5.0;" x1="668.5" x2="668.5" y1="1031.4453" y2="1071.7969"/><line style="stroke:#181818;stroke-width:0.5;stroke-dasharray:5.0,5.0;" x1="839" x2="839" y1="82.6094" y2="200.0156"/><line style="stroke:#A80036;stroke-width:1.0;stroke-dasharray:1.0,4.0;" x1="839" x2="839" y1="200.0156" y2="241.8516"/><line style="stroke:#181818;stroke-width:0.5;stroke-dasharray:5.0,5.0;" x1="839" x2="839" y1="241.8516" y2="547.0703"/><line style="stroke:#A80036;stroke-width:1.0;stroke-dasharray:1.0,4.0;" x1="839" x2="839" y1="547.0703" y2="588.9063"/><line style="stroke:#181818;stroke-width:0.5;stroke-dasharray:5.0,5.0;" x1="839" x2="839" y1="588.9063" y2="901.0703"/><line style="stroke:#A80036;stroke-width:1.0;stroke-dasharray:1.0,4.0;" x1="839" x2="839" y1="901.0703" y2="942.9063"/><line style="stroke:#181818;stroke-width:0.5;stroke-dasharray:5.0,5.0;" x1="839" x2="839" y1="942.9063" y2="989.6094"/><line style="stroke:#A80036;stroke-width:1.0;stroke-dasharray:1.0,4.0;" x1="839" x2="839" y1="989.6094" y2="1031.4453"/><line style="stroke:#181818;stroke-width:0.5;stroke-dasharray:5.0,5.0;" x1="839" x2="839" y1="1031.4453" y2="1071.7969"/><line style="stroke:#181818;stroke-width:0.5;stroke-dasharray:5.0,5.0;" x1="909" x2="909" y1="82.6094" y2="200.0156"/><line style="stroke:#A80036;stroke-width:1.0;stroke-dasharray:1.0,4.0;" x1="909" x2="909" y1="200.0156" y2="241.8516"/><line style="stroke:#181818;stroke-width:0.5;stroke-dasharray:5.0,5.0;" x1="909" x2="909" y1="241.8516" y2="547.0703"/><line style="stroke:#A80036;stroke-width:1.0;stroke-dasharray:1.0,4.0;" x1="909" x2="909" y1="547.0703" y2="588.9063"/><line style="stroke:#181818;stroke-width:0.5;stroke-dasharray:5.0,5.0;" x1="909" x2="909" y1="588.9063" y2="901.0703"/><line style="stroke:#A80036;stroke-width:1.0;stroke-dasharray:1.0,4.0;" x1="909" x2="909" y1="901.0703" y2="942.9063"/><line style="stroke:#181818;stroke-width:0.5;stroke-dasharray:5.0,5.0;" x1="909" x2="909" y1="942.9063" y2="989.6094"/><line style="stroke:#A80036;stroke-width:1.0;stroke-dasharray:1.0,4.0;" x1="909" x2="909" y1="989.6094" y2="1031.4453"/><line style="stroke:#181818;stroke-width:0.5;stroke-dasharray:5.0,5.0;" x1="909" x2="909" y1="1031.4453" y2="1071.7969"/><line style="stroke:#181818;stroke-width:0.5;stroke-dasharray:5.0,5.0;" x1="1037.5" x2="1037.5" y1="82.6094" y2="200.0156"/><line style="stroke:#A80036;stroke-width:1.0;stroke-dasharray:1.0,4.0;" x1="1037.5" x2="1037.5" y1="200.0156" y2="241.8516"/><line style="stroke:#181818;stroke-width:0.5;stroke-dasharray:5.0,5.0;" x1="1037.5" x2="1037.5" y1="241.8516" y2="547.0703"/><line style="stroke:#A80036;stroke-width:1.0;stroke-dasharray:1.0,4.0;" x1="1037.5" x2="1037.5" y1="547.0703" y2="588.9063"/><line style="stroke:#181818;stroke-width:0.5;stroke-dasharray:5.0,5.0;" x1="1037.5" x2="1037.5" y1="588.9063" y2="901.0703"/><line style="stroke:#A80036;stroke-width:1.0;stroke-dasharray:1.0,4.0;" x1="1037.5" x2="1037.5" y1="901.0703" y2="942.9063"/><line style="stroke:#181818;stroke-width:0.5;stroke-dasharray:5.0,5.0;" x1="1037.5" x2="1037.5" y1="942.9063" y2="989.6094"/><line style="stroke:#A80036;stroke-width:1.0;stroke-dasharray:1.0,4.0;" x1="1037.5" x2="1037.5" y1="989.6094" y2="1031.4453"/><line style="stroke:#181818;stroke-width:0.5;stroke-dasharray:5.0,5.0;" x1="1037.5" x2="1037.5" y1="1031.4453" y2="1071.7969"/><text fill="#000000" font-family="sans-serif" font-size="14" lengthAdjust="spacing" textLength="53" x="5" y="79.5332">Traveler</text><ellipse cx="34.5" cy="13.5" fill="#E2E2F0" rx="8" ry="8" style="stroke:#181818;stroke-width:0.5;"/><path d="M34.5,21.5 L34.5,48.5 M21.5,29.5 L47.5,29.5 M34.5,48.5 L21.5,63.5 M34.5,48.5 L47.5,63.5 " fill="none" style="stroke:#181818;stroke-width:0.5;"/><text fill="#000000" font-family="sans-serif" font-size="14" lengthAdjust="spacing" textLength="53" x="5" y="1085.3301">Traveler</text><ellipse cx="34.5" cy="1096.9063" fill="#E2E2F0" rx="8" ry="8" style="stroke:#181818;stroke-width:0.5;"/><path d="M34.5,1104.9063 L34.5,1131.9063 M21.5,1112.9063 L47.5,1112.9063 M34.5,1131.9063 L21.5,1146.9063 M34.5,1131.9063 L47.5,1146.9063 " fill="none" style="stroke:#181818;stroke-width:0.5;"/><rect fill="#E2E2F0" height="31.6094" rx="2.5" ry="2.5" style="stroke:#181818;stroke-width:0.5;" width="113" x="123" y="50"/><text fill="#000000" font-family="sans-serif" font-size="14" lengthAdjust="spacing" textLength="99" x="130" y="71.5332">Booking Engine</text><rect fill="#E2E2F0" height="31.6094" rx="2.5" ry="2.5" style="stroke:#181818;stroke-width:0.5;" width="113" x="123" y="1070.7969"/><text fill="#000000" font-family="sans-serif" font-size="14" lengthAdjust="spacing" textLength="99" x="130" y="1092.3301">Booking Engine</text><rect fill="#E2E2F0" height="31.6094" rx="2.5" ry="2.5" style="stroke:#181818;stroke-width:0.5;" width="61" x="276" y="50"/><text fill="#000000" font-family="sans-serif" font-size="14" lengthAdjust="spacing" textLength="47" x="283" y="71.5332">Paywall</text><rect fill="#E2E2F0" height="31.6094" rx="2.5" ry="2.5" style="stroke:#181818;stroke-width:0.5;" width="61" x="276" y="1070.7969"/><text fill="#000000" font-family="sans-serif" font-size="14" lengthAdjust="spacing" textLength="47" x="283" y="1092.3301">Paywall</text><rect fill="#E2E2F0" height="31.6094" rx="2.5" ry="2.5" style="stroke:#181818;stroke-width:0.5;" width="41" x="531" y="50"/><text fill="#000000" font-family="sans-serif" font-size="14" lengthAdjust="spacing" textLength="27" x="538" y="71.5332">NAV</text><rect fill="#E2E2F0" height="31.6094" rx="2.5" ry="2.5" style="stroke:#181818;stroke-width:0.5;" width="41" x="531" y="1070.7969"/><text fill="#000000" font-family="sans-serif" font-size="14" lengthAdjust="spacing" textLength="27" x="538" y="1092.3301">NAV</text><rect fill="#E2E2F0" height="31.6094" rx="2.5" ry="2.5" style="stroke:#181818;stroke-width:0.5;" width="76" x="630.5" y="50"/><text fill="#000000" font-family="sans-serif" font-size="14" lengthAdjust="spacing" textLength="62" x="637.5" y="71.5332">NAV or IG</text><rect fill="#E2E2F0" height="31.6094" rx="2.5" ry="2.5" style="stroke:#181818;stroke-width:0.5;" width="76" x="630.5" y="1070.7969"/><text fill="#000000" font-family="sans-serif" font-size="14" lengthAdjust="spacing" textLength="62" x="637.5" y="1092.3301">NAV or IG</text><rect fill="#E2E2F0" height="31.6094" rx="2.5" ry="2.5" style="stroke:#181818;stroke-width:0.5;" width="37" x="821" y="50"/><text fill="#000000" font-family="sans-serif" font-size="14" lengthAdjust="spacing" textLength="23" x="828" y="71.5332">OIP</text><rect fill="#E2E2F0" height="31.6094" rx="2.5" ry="2.5" style="stroke:#181818;stroke-width:0.5;" width="37" x="821" y="1070.7969"/><text fill="#000000" font-family="sans-serif" font-size="14" lengthAdjust="spacing" textLength="23" x="828" y="1092.3301">OIP</text><rect fill="#E2E2F0" height="31.6094" rx="2.5" ry="2.5" style="stroke:#181818;stroke-width:0.5;" width="83" x="868" y="50"/><text fill="#000000" font-family="sans-serif" font-size="14" lengthAdjust="spacing" textLength="69" x="875" y="71.5332">D3 Archive</text><rect fill="#E2E2F0" height="31.6094" rx="2.5" ry="2.5" style="stroke:#181818;stroke-width:0.5;" width="83" x="868" y="1070.7969"/><text fill="#000000" font-family="sans-serif" font-size="14" lengthAdjust="spacing" textLength="69" x="875" y="1092.3301">D3 Archive</text><text fill="#000000" font-family="sans-serif" font-size="14" lengthAdjust="spacing" textLength="32" x="1018.5" y="79.5332">Hotel</text><ellipse cx="1037.5" cy="13.5" fill="#E2E2F0" rx="8" ry="8" style="stroke:#181818;stroke-width:0.5;"/><path d="M1037.5,21.5 L1037.5,48.5 M1024.5,29.5 L1050.5,29.5 M1037.5,48.5 L1024.5,63.5 M1037.5,48.5 L1050.5,63.5 " fill="none" style="stroke:#181818;stroke-width:0.5;"/><text fill="#000000" font-family="sans-serif" font-size="14" lengthAdjust="spacing" textLength="32" x="1018.5" y="1085.3301">Hotel</text><ellipse cx="1037.5" cy="1096.9063" fill="#E2E2F0" rx="8" ry="8" style="stroke:#181818;stroke-width:0.5;"/><path d="M1037.5,1104.9063 L1037.5,1131.9063 M1024.5,1112.9063 L1050.5,1112.9063 M1037.5,1131.9063 L1024.5,1146.9063 M1037.5,1131.9063 L1050.5,1146.9063 " fill="none" style="stroke:#181818;stroke-width:0.5;"/><polygon fill="#181818" points="167.5,127.3125,177.5,131.3125,167.5,135.3125,171.5,131.3125" style="stroke:#181818;stroke-width:1.0;"/><line style="stroke:#181818;stroke-width:1.0;" x1="34.5" x2="173.5" y1="131.3125" y2="131.3125"/><text fill="#000000" font-family="sans-serif" font-size="13" lengthAdjust="spacing" textLength="121" x="41.5" y="110.1045">Books overnight stay</text><text fill="#000000" font-family="sans-serif" font-size="13" lengthAdjust="spacing" textLength="83" x="45.5" y="126.4561">Cost 100 EUR</text><polygon fill="#181818" points="294.5,157.6641,304.5,161.6641,294.5,165.6641,298.5,161.6641" style="stroke:#181818;stroke-width:1.0;"/><line style="stroke:#181818;stroke-width:1.0;" x1="179.5" x2="300.5" y1="161.6641" y2="161.6641"/><text fill="#000000" font-family="sans-serif" font-size="13" lengthAdjust="spacing" textLength="103" x="186.5" y="156.8076">Sends reservation</text><polygon fill="#181818" points="294.5,188.0156,304.5,192.0156,294.5,196.0156,298.5,192.0156" style="stroke:#181818;stroke-width:1.0;"/><line style="stroke:#181818;stroke-width:1.0;" x1="34.5" x2="300.5" y1="192.0156" y2="192.0156"/><text fill="#000000" font-family="sans-serif" font-size="13" lengthAdjust="spacing" textLength="111" x="41.5" y="187.1592">Authorize Payment</text><text fill="#000000" font-family="sans-serif" font-size="11" lengthAdjust="spacing" textLength="72" x="500" y="225.4346">some time later</text><polygon fill="#181818" points="317.5,260.2031,307.5,264.2031,317.5,268.2031,313.5,264.2031" style="stroke:#181818;stroke-width:1.0;"/><line style="stroke:#181818;stroke-width:1.0;" x1="311.5" x2="1036.5" y1="264.2031" y2="264.2031"/><text fill="#000000" font-family="sans-serif" font-size="13" lengthAdjust="spacing" textLength="79" x="323.5" y="259.3467">Charges Stay</text><line style="stroke:#181818;stroke-width:1.0;" x1="306.5" x2="348.5" y1="294.5547" y2="294.5547"/><line style="stroke:#181818;stroke-width:1.0;" x1="348.5" x2="348.5" y1="294.5547" y2="307.5547"/><line style="stroke:#181818;stroke-width:1.0;" x1="307.5" x2="348.5" y1="307.5547" y2="307.5547"/><polygon fill="#181818" points="317.5,303.5547,307.5,307.5547,317.5,311.5547,313.5,307.5547" style="stroke:#181818;stroke-width:1.0;"/><text fill="#000000" font-family="sans-serif" font-size="13" lengthAdjust="spacing" textLength="135" x="313.5" y="289.6982">Calculates commission</text><line style="stroke:#181818;stroke-width:1.0;" x1="306.5" x2="348.5" y1="386.9609" y2="386.9609"/><line style="stroke:#181818;stroke-width:1.0;" x1="348.5" x2="348.5" y1="386.9609" y2="399.9609"/><line style="stroke:#181818;stroke-width:1.0;" x1="307.5" x2="348.5" y1="399.9609" y2="399.9609"/><polygon fill="#181818" points="317.5,395.9609,307.5,399.9609,317.5,403.9609,313.5,399.9609" style="stroke:#181818;stroke-width:1.0;"/><text fill="#000000" font-family="sans-serif" font-size="13" lengthAdjust="spacing" textLength="102" x="313.5" y="333.0498">Transfer Payment</text><text fill="#000000" font-family="sans-serif" font-size="13" lengthAdjust="spacing" textLength="163" x="313.5" y="349.4014">from Traveler Stripe Account</text><text fill="#000000" font-family="sans-serif" font-size="13" lengthAdjust="spacing" textLength="132" x="313.5" y="365.7529">to HRS Stripe Account</text><text fill="#000000" font-family="sans-serif" font-size="13" lengthAdjust="spacing" textLength="52" x="317.5" y="382.1045">100 EUR</text><line style="stroke:#181818;stroke-width:1.0;" x1="306.5" x2="348.5" y1="495.7188" y2="495.7188"/><line style="stroke:#181818;stroke-width:1.0;" x1="348.5" x2="348.5" y1="495.7188" y2="508.7188"/><line style="stroke:#181818;stroke-width:1.0;" x1="307.5" x2="348.5" y1="508.7188" y2="508.7188"/><polygon fill="#181818" points="317.5,504.7188,307.5,508.7188,317.5,512.7188,313.5,508.7188" style="stroke:#181818;stroke-width:1.0;"/><text fill="#000000" font-family="sans-serif" font-size="13" lengthAdjust="spacing" textLength="198" x="313.5" y="425.4561">Transfer payment of overnight stay</text><text fill="#000000" font-family="sans-serif" font-size="13" lengthAdjust="spacing" textLength="192" x="313.5" y="441.8076">deducted by commission amount</text><text fill="#000000" font-family="sans-serif" font-size="13" lengthAdjust="spacing" textLength="146" x="313.5" y="458.1592">from HRS Stripe Account</text><text fill="#000000" font-family="sans-serif" font-size="13" lengthAdjust="spacing" textLength="128" x="313.5" y="474.5107">to vCC Stripe Account</text><text fill="#000000" font-family="sans-serif" font-size="13" lengthAdjust="spacing" textLength="92" x="317.5" y="490.8623">100-10=90 EUR</text><polygon fill="#181818" points="539.5,535.0703,549.5,539.0703,539.5,543.0703,543.5,539.0703" style="stroke:#181818;stroke-width:1.0;"/><line style="stroke:#181818;stroke-width:1.0;" x1="306.5" x2="545.5" y1="539.0703" y2="539.0703"/><text fill="#000000" font-family="sans-serif" font-size="13" lengthAdjust="spacing" textLength="217" x="313.5" y="534.2139">(1), (2) Sends all payment information</text><text fill="#000000" font-family="sans-serif" font-size="11" lengthAdjust="spacing" textLength="72" x="500" y="572.4893">some time later</text><line style="stroke:#181818;stroke-width:1.0;" x1="306.5" x2="348.5" y1="611.2578" y2="611.2578"/><line style="stroke:#181818;stroke-width:1.0;" x1="348.5" x2="348.5" y1="611.2578" y2="624.2578"/><line style="stroke:#181818;stroke-width:1.0;" x1="307.5" x2="348.5" y1="624.2578" y2="624.2578"/><polygon fill="#181818" points="317.5,620.2578,307.5,624.2578,317.5,628.2578,313.5,624.2578" style="stroke:#181818;stroke-width:1.0;"/><text fill="#000000" font-family="sans-serif" font-size="13" lengthAdjust="spacing" textLength="120" x="313.5" y="606.4014">Triggers daily payout</text><polygon fill="#181818" points="539.5,650.6094,549.5,654.6094,539.5,658.6094,543.5,654.6094" style="stroke:#181818;stroke-width:1.0;"/><line style="stroke:#181818;stroke-width:1.0;" x1="306.5" x2="545.5" y1="654.6094" y2="654.6094"/><text fill="#000000" font-family="sans-serif" font-size="13" lengthAdjust="spacing" textLength="164" x="313.5" y="649.7529">(3) Sends payout settlement</text><line style="stroke:#181818;stroke-width:1.0;" x1="551.5" x2="593.5" y1="684.9609" y2="684.9609"/><line style="stroke:#181818;stroke-width:1.0;" x1="593.5" x2="593.5" y1="684.9609" y2="697.9609"/><line style="stroke:#181818;stroke-width:1.0;" x1="552.5" x2="593.5" y1="697.9609" y2="697.9609"/><polygon fill="#181818" points="562.5,693.9609,552.5,697.9609,562.5,701.9609,558.5,697.9609" style="stroke:#181818;stroke-width:1.0;"/><text fill="#000000" font-family="sans-serif" font-size="13" lengthAdjust="spacing" textLength="92" x="558.5" y="680.1045">Posts invoice(s)</text><line style="stroke:#181818;stroke-width:1.0;" x1="551.5" x2="593.5" y1="728.3125" y2="728.3125"/><line style="stroke:#181818;stroke-width:1.0;" x1="593.5" x2="593.5" y1="728.3125" y2="741.3125"/><line style="stroke:#181818;stroke-width:1.0;" x1="552.5" x2="593.5" y1="741.3125" y2="741.3125"/><polygon fill="#181818" points="562.5,737.3125,552.5,741.3125,562.5,745.3125,558.5,741.3125" style="stroke:#181818;stroke-width:1.0;"/><text fill="#000000" font-family="sans-serif" font-size="13" lengthAdjust="spacing" textLength="103" x="558.5" y="723.4561">Posts payment(s)</text><polygon fill="#181818" points="656.5,767.6641,666.5,771.6641,656.5,775.6641,660.5,771.6641" style="stroke:#181818;stroke-width:1.0;"/><line style="stroke:#181818;stroke-width:1.0;" x1="306.5" x2="662.5" y1="771.6641" y2="771.6641"/><text fill="#000000" font-family="sans-serif" font-size="13" lengthAdjust="spacing" textLength="158" x="313.5" y="766.8076">Sends payment information</text><polygon fill="#181818" points="897.5,798.0156,907.5,802.0156,897.5,806.0156,901.5,802.0156" style="stroke:#181818;stroke-width:1.0;"/><line style="stroke:#181818;stroke-width:1.0;" x1="668.5" x2="903.5" y1="802.0156" y2="802.0156"/><text fill="#000000" font-family="sans-serif" font-size="13" lengthAdjust="spacing" textLength="147" x="675.5" y="797.1592">Archives PDF documents</text><polygon fill="#181818" points="827.5,828.3672,837.5,832.3672,827.5,836.3672,831.5,832.3672" style="stroke:#181818;stroke-width:1.0;"/><line style="stroke:#181818;stroke-width:1.0;" x1="668.5" x2="833.5" y1="832.3672" y2="832.3672"/><text fill="#000000" font-family="sans-serif" font-size="13" lengthAdjust="spacing" textLength="147" x="675.5" y="827.5107">Sends invoice information</text><polygon fill="#181818" points="1025.5,858.7188,1035.5,862.7188,1025.5,866.7188,1029.5,862.7188" style="stroke:#181818;stroke-width:1.0;"/><line style="stroke:#181818;stroke-width:1.0;" x1="668.5" x2="1031.5" y1="862.7188" y2="862.7188"/><text fill="#000000" font-family="sans-serif" font-size="13" lengthAdjust="spacing" textLength="80" x="675.5" y="857.8623">Sends invoice</text><polygon fill="#181818" points="45.5,889.0703,35.5,893.0703,45.5,897.0703,41.5,893.0703" style="stroke:#181818;stroke-width:1.0;"/><line style="stroke:#181818;stroke-width:1.0;" x1="39.5" x2="667.5" y1="893.0703" y2="893.0703"/><text fill="#000000" font-family="sans-serif" font-size="13" lengthAdjust="spacing" textLength="123" x="51.5" y="888.2139">Sends booker invoice</text><text fill="#000000" font-family="sans-serif" font-size="11" lengthAdjust="spacing" textLength="72" x="500" y="926.4893">some time later</text><polygon fill="#181818" points="850.5,977.6094,840.5,981.6094,850.5,985.6094,846.5,981.6094" style="stroke:#181818;stroke-width:1.0;"/><line style="stroke:#181818;stroke-width:1.0;" x1="844.5" x2="1036.5" y1="981.6094" y2="981.6094"/><text fill="#000000" font-family="sans-serif" font-size="13" lengthAdjust="spacing" textLength="174" x="856.5" y="960.4014">lookup invoices and payments</text><text fill="#000000" font-family="sans-serif" font-size="13" lengthAdjust="spacing" textLength="64" x="856.5" y="976.7529">on demand</text><text fill="#000000" font-family="sans-serif" font-size="11" lengthAdjust="spacing" textLength="37" x="517.5" y="1015.0283">optional</text><polygon fill="#181818" points="317.5,1049.7969,307.5,1053.7969,317.5,1057.7969,313.5,1053.7969" style="stroke:#181818;stroke-width:1.0;"/><line style="stroke:#181818;stroke-width:1.0;" x1="311.5" x2="550.5" y1="1053.7969" y2="1053.7969"/><text fill="#000000" font-family="sans-serif" font-size="13" lengthAdjust="spacing" textLength="221" x="323.5" y="1048.9404">Sends done payment(s) and invoice(s)</text><!--SRC=[XLF1Rjim3BtxAuYU4c0DakMq0XkG9bsRoneasqu12bLM7A6oQ4YoX-phHycoCzN9Th4iyf7lKIGPTsZWks6DKC9a5JDESbanxU3c7l5DwW8UT26rk05c8PfQIuhUiDClfbI0nVyKy6tnCpZf73Y0HAmVE_VBy_Pb_PY2djURuAOpTQpci33yA9jMuMeURnaBfJsX4ohBkWhXzajQ1Do5kmLiXD6oE3gmZfts6fPe7SocKtZuiStI64eIIwJmdT2v1IEiC0rp4dL2TiOjQdT48tyBRok5TjbaCW6BfG0dwQEOen2oPK5p6hmyCbC82plIbdNc5C4KhtqE2npBKbhhfLo4aZvj3qGMXS1U7moM_HWGYv6LW0NdM6ktrmxXQRiRcFlN-JTB5LdmC7ZaNEGrToA7rzDVge6LBK5GDMI6eAXPBYygkfrDFtyQwF93TWUZsVW3Z3wEOzEyhrCdzG5DsJRmMcEkr2cBGXWBEPFgvFDXxIvGpplM5W5MEAT460IFw84RcZjBSXgKN8pi-98tYlRUbAXTdNugBnLtHb58lov-GDi_Mj_LLyYHrpxKfdXQlpvvb7WzUJl7x-0ff1-v3lLAYqRN3lpV5Ma5AOgggowA6glphdQxrpHHkIZ95j9XvPKo5VB4jts_pJdIbfyVEUGxT-GF]--></g></svg>